<svg width="21" height="21" viewBox="0 0 21 21" fill="none" xmlns="http://www.w3.org/2000/svg">
<path d="M8.64205 12.1627L19.7094 1.44312M8.64205 12.1627L12.1635 18.9843C12.2076 19.0776 12.2785 19.1566 12.3677 19.2121C12.4568 19.2675 12.5606 19.297 12.6665 19.297C12.7725 19.297 12.8762 19.2675 12.9654 19.2121C13.0546 19.1566 13.1255 19.0776 13.1696 18.9843L19.7094 1.44312M8.64205 12.1627L1.5992 8.75193C1.50287 8.70917 1.42125 8.64053 1.36402 8.55415C1.30679 8.46778 1.27637 8.36731 1.27637 8.26468C1.27637 8.16204 1.30679 8.06157 1.36402 7.9752C1.42125 7.88882 1.50287 7.82018 1.5992 7.77742L19.7094 1.44312" stroke="white" stroke-width="2" stroke-linecap="round" stroke-linejoin="round"/>
</svg>
