<svg xmlns="http://www.w3.org/2000/svg" xmlns:xlink="http://www.w3.org/1999/xlink" version="1.2" baseProfile="tiny" x="0px" y="0px" viewBox="0 0 100 100" xml:space="preserve"><path d="M 50 4 C 25.2 4 5 24.2 5 49 s 20.2 45 45 45 s 45 -20.2 45 -45 S 74.8 4 50 4 z M 50 89 c -22.1 0 -40 -17.9 -40 -40 s 17.9 -40 40 -40 s 40 17.9 40 40 S 72.1 89 50 89 z"/><path d="M 51.8 25.7 c -1 -1 -2.6 -1 -3.5 0 l -22.5 22.5 c -1 1 -1 2.6 0 3.5 s 2.6 1 3.5 0 L 47.5 33.5 V 70 c 0 1.4 1.1 2.5 2.5 2.5 s 2.5 -1.1 2.5 -2.5 V 33.5 l 18.2 18.2 C 71.2 52.3 71.9 52.5 72.5 52.5 s 1.3 -0.2 1.8 -0.7 c 1 -1 1 -2.6 0 -3.5 L 51.8 25.7 z"/></svg>